C:\Users\u0088756\Documents\documenten\software\SoftwareProjects\DC_TrackingSimulation\Data\Patient2\InputData\GRF_data.mot
nRows=17
nColumns=19

name C:\Users\u0088756\Documents\documenten\software\SoftwareProjects\DC_TrackingSimulation\Data\Patient2\InputData\GRF_data.mot
datacolumns 19
datarows 17
range 0.6400000000 0.6560000000
endheader
time	ground_force_vx	ground_force_vy	ground_force_vz	ground_force_px	ground_force_py	ground_force_pz	1_ground_force_vx	1_ground_force_vy	1_ground_force_vz	1_ground_force_px	1_ground_force_py	1_ground_force_pz	ground_torque_x	ground_torque_y	ground_torque_z	1_ground_torque_x	1_ground_torque_y	1_ground_torque_z
        0.6400000000	      121.8090832458	     1000.1120171113	       68.6865268659	        0.7598504831	        0.0002038783	       -0.1117661167	        0.0000000000	        0.0000000000	        0.0000000000	        0.6213228302	        0.0002038783	        0.0000736305	        0.0000000000	        3.3179388993	        0.0000000000	        0.0000000000	        0.0000000000	        0.0000000000	
        0.6410000000	      122.3225353230	     1001.2452896482	       68.7833875884	        0.7602765533	        0.0001982005	       -0.1118284290	        0.0000000000	        0.0000000000	        0.0000000000	        0.6222973752	        0.0001982005	        0.0000677156	        0.0000000000	        3.3431974888	        0.0000000000	        0.0000000000	        0.0000000000	        0.0000000000	
        0.6420000000	      122.8424664748	     1002.3626456192	       68.8702061389	        0.7607004834	        0.0001925228	       -0.1118880052	        0.0000000000	        0.0000000000	        0.0000000000	        0.6232719202	        0.0001925228	        0.0000618006	        0.0000000000	        3.3684721001	        0.0000000000	        0.0000000000	        0.0000000000	        0.0000000000	
        0.6430000000	      123.3689511308	     1003.4630260119	       68.9468438670	        0.7611222327	        0.0001868450	       -0.1119448466	        0.0000000000	        0.0000000000	        0.0000000000	        0.6242464653	        0.0001868450	        0.0000558857	        0.0000000000	        3.3937440408	        0.0000000000	        0.0000000000	        0.0000000000	        0.0000000000	
        0.6440000000	      123.9020550000	     1004.5453441202	       69.0131656069	        0.7615417617	        0.0001811673	       -0.1119989563	        0.0000000000	        0.0000000000	        0.0000000000	        0.6252210104	        0.0001811673	        0.0000499707	        0.0000000000	        3.4189940318	        0.0000000000	        0.0000000000	        0.0000000000	        0.0000000000	
        0.6450000000	      124.4418347825	     1005.6084859928	       69.0690397809	        0.7619599452	        0.0001745820	       -0.1120516699	        0.0000000000	        0.0000000000	        0.0000000000	        0.6261964689	        0.0001745820	        0.0000427251	        0.0000000000	        3.4442022132	        0.0000000000	        0.0000000000	        0.0000000000	        0.0000000000	
        0.6460000000	      124.9883378858	     1006.6513109221	       69.1143385047	        0.7623758326	        0.0001679967	       -0.1121016635	        0.0000000000	        0.0000000000	        0.0000000000	        0.6271719274	        0.0001679967	        0.0000354794	        0.0000000000	        3.4693481514	        0.0000000000	        0.0000000000	        0.0000000000	        0.0000000000	
        0.6470000000	      125.5416021474	     1007.6726519731	       69.1489376910	        0.7627893882	        0.0001614114	       -0.1121489453	        0.0000000000	        0.0000000000	        0.0000000000	        0.6281473859	        0.0001614114	        0.0000282337	        0.0000000000	        3.4944108489	        0.0000000000	        0.0000000000	        0.0000000000	        0.0000000000	
        0.6480000000	      126.1016555618	     1008.6713165496	       69.1727171536	        0.7632005777	        0.0001548261	       -0.1121935252	        0.0000000000	        0.0000000000	        0.0000000000	        0.6291228444	        0.0001548261	        0.0000209880	        0.0000000000	        3.5193687567	        0.0000000000	        0.0000000000	        0.0000000000	        0.0000000000	
        0.6490000000	      126.6685160148	     1009.6460869998	       69.1855607115	        0.7636093683	        0.0001482408	       -0.1122354148	        0.0000000000	        0.0000000000	        0.0000000000	        0.6300983030	        0.0001482408	        0.0000137424	        0.0000000000	        3.5441997888	        0.0000000000	        0.0000000000	        0.0000000000	        0.0000000000	
        0.6500000000	      127.2421910241	     1010.5957212577	       69.1873562913	        0.7640163066	        0.0001410340	       -0.1122755063	        0.0000000000	        0.0000000000	        0.0000000000	        0.6310743395	        0.0001410340	        0.0000056176	        0.0000000000	        3.5688813391	        0.0000000000	        0.0000000000	        0.0000000000	        0.0000000000	
        0.6510000000	      127.8226774879	     1011.5189535220	       69.1779960304	        0.7644207852	        0.0001338272	       -0.1123129350	        0.0000000000	        0.0000000000	        0.0000000000	        0.6320503760	        0.0001338272	       -0.0000025072	        0.0000000000	        3.5933903007	        0.0000000000	        0.0000000000	        0.0000000000	        0.0000000000	
        0.6520000000	      128.4099614398	     1012.4144949695	       69.1573763785	        0.7648227764	        0.0001266204	       -0.1123477170	        0.0000000000	        0.0000000000	        0.0000000000	        0.6330264125	        0.0001266204	       -0.0000106320	        0.0000000000	        3.6177030871	        0.0000000000	        0.0000000000	        0.0000000000	        0.0000000000	
        0.6530000000	      129.0040178133	     1013.2810345041	       69.1253981989	        0.7652222544	        0.0001194136	       -0.1123798696	        0.0000000000	        0.0000000000	        0.0000000000	        0.6340024491	        0.0001194136	       -0.0000187568	        0.0000000000	        3.6417956559	        0.0000000000	        0.0000000000	        0.0000000000	        0.0000000000	
        0.6540000000	      129.6048102143	     1014.1172395393	       69.0819668681	        0.7656191948	        0.0001122068	       -0.1124094115	        0.0000000000	        0.0000000000	        0.0000000000	        0.6349784856	        0.0001122068	       -0.0000268816	        0.0000000000	        3.6656435342	        0.0000000000	        0.0000000000	        0.0000000000	        0.0000000000	
        0.6550000000	      130.2122907025	     1014.9217568141	       69.0269923752	        0.7660136582	        0.0001047617	       -0.1124365547	        0.0000000000	        0.0000000000	        0.0000000000	        0.6359546044	        0.0001047617	       -0.0000351985	        0.0000000000	        3.6892218461	        0.0000000000	        0.0000000000	        0.0000000000	        0.0000000000	
        0.6560000000	      130.8263995828	     1015.6932132418	       68.9603894197	        0.7664055421	        0.0000973167	       -0.1124611282	        0.0000000000	        0.0000000000	        0.0000000000	        0.6369307233	        0.0000973167	       -0.0000435155	        0.0000000000	        3.7125053415	        0.0000000000	        0.0000000000	        0.0000000000	        0.0000000000	
